<svg xmlns="http://www.w3.org/2000/svg" xml:space="preserve" id="business-presentation" x="0" y="0" enable-background="new 0 0 300 225" version="1.1" viewBox="0 0 300 225">
  <g>
    <g id="XMLID_5318_">
      <path id="XMLID_4_" fill="none" stroke="#000" stroke-miterlimit="10" stroke-width=".316" d="M181.57,216.89c45.19-10.22,80.16-46.37,87.93-92.04c13.81-81.14-77.85-71.74-96.18-92.91
			c-26.7-30.83-51.63-33.34-72.97-20.23c-26.69,16.4-5,38.9-40.29,66.34c-22.97,17.87-26.16,42.63-20.78,65.67
			c7.65,32.71,31.99,58.85,63.77,69.73C122.91,220.25,149.48,224.15,181.57,216.89z"></path>
    </g>
    <path fill="#fff" stroke="#000" stroke-miterlimit="10" stroke-width=".316" d="M188.13,216.09c0,0,29.71,5.57,70.87-0.18c0,0,2.75-49.11-7.89-72.66l-50.86,0.6
		C200.25,143.85,188.83,169.24,188.13,216.09z"></path>
    <g>
      <path fill="#fff" stroke="#000" stroke-miterlimit="10" stroke-width=".316" d="M160.34,136.02H31.39c-2.09,0-3.79-1.7-3.79-3.79V49.07c0-2.09,1.7-3.79,3.79-3.79h128.95
			c2.09,0,3.79,1.7,3.79,3.79v83.16C164.13,134.32,162.43,136.02,160.34,136.02z"></path>
      <g>
        <line x1="50.35" x2="50.35" y1="53.59" y2="130.31" fill="none" stroke="#000" stroke-linecap="round" stroke-linejoin="round" stroke-miterlimit="10" stroke-width="1.263"></line>
        <line x1="43.36" x2="148.4" y1="124.48" y2="124.48" fill="none" stroke="#000" stroke-linecap="round" stroke-linejoin="round" stroke-miterlimit="10" stroke-width="1.263"></line>
      </g>
      <polyline fill="none" stroke="#000" stroke-linecap="round" stroke-linejoin="round" stroke-miterlimit="10" stroke-width="1.263" points="56.02 118.93 70.25 93.25 81.6 107.46 92.94 84.73 98.65 98.94 104.36 79.04 112.73 107.57 118.57 90.41 124.2 101.94 129.81 84.78 138.43 96.13 149.76 67.59"></polyline>
      <g>
        <polygon points="71.51 136.02 65.11 195.69 68.77 195.69 78.68 136.02"></polygon>
        <polygon points="120.12 136.02 126.64 195.69 122.98 195.69 112.96 136.02"></polygon>
        <path d="M124.18,138.84H67.47c-0.7,0-1.26-0.56-1.26-1.26v-3.15c0-0.7,0.56-1.26,1.26-1.26h56.71c0.7,0,1.26,0.56,1.26,1.26v3.15
				C125.44,138.28,124.87,138.84,124.18,138.84z"></path>
      </g>
      <path d="M99.49,40.7h-7.25c-0.36,0-0.65,0.29-0.65,0.65v3.93h8.55v-3.93C100.14,40.99,99.85,40.7,99.49,40.7z"></path>
      <g>
        <g>
          <rect width="47.43" height="1.65" x="56.04" y="53.59"></rect>
        </g>
        <g>
          <rect width="26.75" height="1.65" x="56.04" y="62.1"></rect>
        </g>
        <g>
          <rect width="16.36" height="1.65" x="56.04" y="70.64"></rect>
        </g>
      </g>
    </g>
    <g>
      <path d="M223.28,64.41c0,0,10.05-3.86,14.29,5.27c4.21,9.06,3.39,28.84,3.39,28.84l-14.26-0.8L223.28,64.41z"></path>
    </g>
    <g>
      <path fill="#fff" stroke="#000" stroke-linecap="round" stroke-linejoin="round" stroke-miterlimit="10" stroke-width=".316" d="M132.38,102.98c0,0,3.5-0.94,7.37,1.72l-6.89-10.39c-2.96,1.88-5.62,3.26-6.35,6.57
			c-0.72,3.31,3.91,15.99,6.24,15.88c2.33-0.11,1.69-6.35,1.69-6.35S134.22,106.89,132.38,102.98z"></path>
      <path fill="#fff" stroke="#000" stroke-linecap="round" stroke-linejoin="round" stroke-miterlimit="10" stroke-width=".316" d="M172.99,112.44l-11.25-6.31l-14.69-12.79c-1.84-1.66-4.45-2.64-6.77-1.77c-0.93,0.35-1.82,0.73-2.38,1.09
			c0,0-7.75-3.19-10.9-5.34c-3.15-2.15-10.81-8.59-13.25-6.78c-2.43,1.82,7.31,10.09,8.2,10.81c0.89,0.73,12.19,9.25,12.19,9.25
			s7.81,5.72,0.65,8.13c0,0-15.68-0.17-15.68,3.27c0,0-1.02,2.68,11.32,2.99c0,0,11.68,0.83,18.37,5.25
			c6.7,4.42,12.74,8.51,12.74,8.51L172.99,112.44z"></path>
    </g>
    <path fill="#ff7f6e" d="M196.95,124.32c6,3.87,7.73,11.88,3.86,17.88c-3.87,6-11.88,7.73-17.88,3.86l-36.51-23.24l13.95-22.03
		L196.95,124.32z"></path>
    <polygon fill="#fff" stroke="#000" stroke-linecap="round" stroke-linejoin="round" stroke-miterlimit="10" stroke-width=".316" points="224.67 81.73 212.14 86.55 213.62 97.09 212.37 97.26 211.65 100.25 221.44 102.23 228.04 98.88"></polygon>
    <path fill="#fff" stroke="#000" stroke-linecap="round" stroke-linejoin="round" stroke-miterlimit="10" stroke-width=".316" d="M225.97,79.71c-1.39,7.05-8.4,12.67-12.85,11.1c-6.39-2.25-6.01-7.23-5.87-14.41
		c0.19-9.92,6.27-12.02,10.91-11.1C222.79,66.21,227.36,72.66,225.97,79.71z"></path>
    <g>
      <path d="M223.9,79.93c0,0-4.38-0.22-7.31-3.67c-2.93-3.45-4.4-7.06-4.4-7.06s-1.83,0.4-2.94,1.92c-0.81,1.12-1.76,2.74-1.76,2.74
			s-0.35-5.02,2.06-7.62c2.41-2.59,4.62-1.84,4.62-1.84s5.4-3.43,11.29,1.3c5.89,4.73,3.69,13.92,3.69,13.92
			S226.24,78.63,223.9,79.93z"></path>
    </g>
    <ellipse cx="225.5" cy="79.63" fill="#fff" rx="4.06" ry="5.08"></ellipse>
    <path fill="#ff7f6e" d="M272.4,164.77l-0.69-50.13c-0.07-7.35-4.89-13.81-11.91-15.98l-4.04-1.25c-4.97-1.79-10.75-3.2-16.01-4.07
		c-4.26-0.7-8.58-0.93-12.89-0.72l0,0c-10.9,9.1-14.48,4.64-14.48,4.64c-0.6,0.08-2.89,0.46-3.47,0.58
		c-16.58,3.23-18.34,10.14-18.34,10.14s-8.16,34.44-0.89,76.91c26.69,11.37,55.33,6.21,66.77,4.09c2.41-0.45,4.58-1.66,5-4.08
		c0.52-3,1.01-5.92,1.46-8.76C268.41,175.31,272.56,170.48,272.4,164.77z"></path>
    <g>
      <path fill="#fff" stroke="#000" stroke-miterlimit="10" stroke-width=".316" d="M198.86,172.3l-39.71-10.21c-1.62-0.42-2.6-2.07-2.18-3.69l14.21-55.24c0.42-1.62,2.07-2.6,3.69-2.18
			l39.71,10.21c1.62,0.42,2.6,2.07,2.18,3.69l-14.21,55.24C202.13,171.74,200.48,172.72,198.86,172.3z"></path>
      <rect width="55.74" height="39.7" x="158.99" y="116.79" transform="rotate(104.418 186.861 136.64)"></rect>
    </g>
    <g>
      <path fill="#fff" stroke="#000" stroke-linecap="round" stroke-linejoin="round" stroke-miterlimit="10" stroke-width=".316" d="M204.5,133.57c0,0,6.88-1.65,10.89,0.2c4.01,1.85,7.87,6.62,7.87,6.62s2.34,1.89,6.94,4.23
			c2.65,1.35,3.76,4.55,2.52,7.25l-3.67,7.95c-1.2,2.6-4.19,3.85-6.88,2.89l0,0c0,0-19.1-0.98-36.98-6.48c0,0-6.68-1.11-6.37-4.35
			c0.24-2.54,2.77-3.27,2.77-3.27s-4.16-0.36-4.12-3.71c0,0,0-3.16,3.41-3.53c0,0-5.86-0.57-4.87-4.82s5.23-2.42,5.23-2.42
			s-2.21-1.49-1.17-4.38c1.05-2.89,4.02-2.22,5.24-1.66C186.52,128.65,200.73,133.83,204.5,133.57z"></path>
      <line x1="181.23" x2="195.02" y1="134.12" y2="138.81" fill="none" stroke="#000" stroke-linecap="round" stroke-linejoin="round" stroke-miterlimit="10" stroke-width=".316"></line>
      <line x1="180.87" x2="194.31" y1="141.37" y2="145.68" fill="none" stroke="#000" stroke-linecap="round" stroke-linejoin="round" stroke-miterlimit="10" stroke-width=".316"></line>
      <line x1="181.58" x2="194.31" y1="148.61" y2="151.92" fill="none" stroke="#000" stroke-linecap="round" stroke-linejoin="round" stroke-miterlimit="10" stroke-width=".316"></line>
    </g>
    <path fill="#ff7f6e" d="M263.22,151.02c6.8,2.18,10.55,9.47,8.37,16.27c-2.18,6.8-9.46,10.55-16.27,8.37l-41.29-12.96l7.76-24.9
		L263.22,151.02z"></path>
    <line x1="214.1" x2="260.71" y1="162.72" y2="176.28" fill="none" stroke="#000" stroke-linecap="round" stroke-linejoin="round" stroke-miterlimit="10" stroke-width=".474"></line>
    <line x1="253.35" x2="221.79" y1="147.87" y2="137.8" fill="none" stroke="#000" stroke-linecap="round" stroke-linejoin="round" stroke-miterlimit="10" stroke-width=".474"></line>
    <path fill="#e1efef" d="M223.28,64.41c0.9,0.16,1.76,0.54,2.52,1.07c0.77,0.53,1.43,1.23,1.9,2.06c0.46,0.83,0.72,1.77,0.74,2.7
		c0.02,0.93-0.15,1.86-0.49,2.7c0.08-0.91,0.1-1.8-0.02-2.66c-0.07-0.43-0.14-0.85-0.29-1.26c-0.13-0.41-0.29-0.8-0.51-1.17
		c-0.41-0.75-0.98-1.4-1.64-1.97C224.83,65.32,224.09,64.82,223.28,64.41z"></path>
    <line x1="249.02" x2="248.37" y1="146.49" y2="126.26" fill="none" stroke="#000" stroke-linecap="round" stroke-linejoin="round" stroke-miterlimit="10" stroke-width=".474"></line>
    <path d="M228.66,92.56c-1.11,2.01-3.96,3.81-6.36,5.3c-5.09,3.18-9.2,2.67-11.71-0.34c0.58-0.09,1.17-0.19,1.77-0.26
		c0,0,3.59,4.46,14.48-4.64L228.66,92.56z"></path>
    <path fill="none" stroke="#000" stroke-linecap="round" stroke-linejoin="round" stroke-miterlimit="10" stroke-width=".316" d="M226.95,77.28c0,0-1.87,0.39-2.34,3.5c0,0,2.08-0.92,2.66,1.21"></path>
  </g>
</svg>
